{
    "asset" : {
        "generator" : "Khronos glTF Blender I/O v3.3.27",
        "version" : "2.0"
    },
    "scene" : 0,
    "scenes" : [
        {
            "name" : "Scene",
            "nodes" : [
                0,
                5
            ]
        }
    ],
    "nodes" : [
        {
            "name" : "school",
            "rotation" : [
                -0.7071068286895752,
                0,
                0,
                0.7071067094802856
            ],
            "scale" : [
                100,
                99.99998474121094,
                99.99998474121094
            ],
            "translation" : [
                100.58555603027344,
                182.22933959960938,
                309.32012939453125
            ]
        },
        {
            "mesh" : 0,
            "name" : "school_schoolMaterial_0",
            "scale" : [
                4.869952201843262,
                4.869951248168945,
                4.869951248168945
            ],
            "translation" : [
                -0.10560131072998047,
                2.0540833473205566,
                -1.2029396295547485
            ]
        },
        {
            "children" : [
                1
            ],
            "name" : "school.001",
            "rotation" : [
                -0.7071068286895752,
                0,
                0,
                0.7071067094802856
            ],
            "scale" : [
                100,
                99.99999237060547,
                99.99999237060547
            ],
            "translation" : [
                100.58555603027344,
                182.22933959960938,
                309.32012939453125
            ]
        },
        {
            "children" : [
                2
            ],
            "name" : "RootNode"
        },
        {
            "children" : [
                3
            ],
            "name" : "School.fbx",
            "rotation" : [
                0.7071068286895752,
                0,
                0,
                0.7071067094802856
            ]
        },
        {
            "children" : [
                4
            ],
            "name" : "Sketchfab_model",
            "rotation" : [
                -0.7071068286895752,
                0,
                0,
                0.7071067094802856
            ],
            "scale" : [
                0.0037977099418640137,
                0.003797710407525301,
                0.003797710407525301
            ]
        }
    ],
    "materials" : [
        {
            "doubleSided" : true,
            "name" : "schoolMaterial.002",
            "pbrMetallicRoughness" : {
                "baseColorTexture" : {
                    "index" : 0
                },
                "metallicFactor" : 0
            }
        }
    ],
    "meshes" : [
        {
            "name" : "school_schoolMaterial_0.002",
            "primitives" : [
                {
                    "attributes" : {
                        "POSITION" : 0,
                        "NORMAL" : 1,
                        "TEXCOORD_0" : 2
                    },
                    "indices" : 3,
                    "material" : 0
                }
            ]
        }
    ],
    "textures" : [
        {
            "sampler" : 0,
            "source" : 0
        }
    ],
    "images" : [
        {
            "bufferView" : 4,
            "mimeType" : "image/png",
            "name" : "schoolMaterial_baseColor"
        }
    ],
    "accessors" : [
        {
            "bufferView" : 0,
            "componentType" : 5126,
            "count" : 24799,
            "max" : [
                3.1215600967407227,
                3.220615863800049,
                1.6356143951416016
            ],
            "min" : [
                -1.1332687139511108,
                -1.0342156887054443,
                -1.158806324005127
            ],
            "type" : "VEC3"
        },
        {
            "bufferView" : 1,
            "componentType" : 5126,
            "count" : 24799,
            "type" : "VEC3"
        },
        {
            "bufferView" : 2,
            "componentType" : 5126,
            "count" : 24799,
            "type" : "VEC2"
        },
        {
            "bufferView" : 3,
            "componentType" : 5123,
            "count" : 26424,
            "type" : "SCALAR"
        }
    ],
    "bufferViews" : [
        {
            "buffer" : 0,
            "byteLength" : 297588,
            "byteOffset" : 0,
            "target" : 34962
        },
        {
            "buffer" : 0,
            "byteLength" : 297588,
            "byteOffset" : 297588,
            "target" : 34962
        },
        {
            "buffer" : 0,
            "byteLength" : 198392,
            "byteOffset" : 595176,
            "target" : 34962
        },
        {
            "buffer" : 0,
            "byteLength" : 52848,
            "byteOffset" : 793568,
            "target" : 34963
        },
        {
            "buffer" : 0,
            "byteLength" : 397456,
            "byteOffset" : 846416
        }
    ],
    "samplers" : [
        {
            "magFilter" : 9729,
            "minFilter" : 9987
        }
    ],
    "buffers" : [
        {
            "byteLength" : 1243872,
            "uri" : "data:application/octet-stream;base64,"
        }
    ]
}
